<svg xmlns="http://www.w3.org/2000/svg" viewBox="0 0 128 128" width="128" height="128">
  <!-- Drawn on the 128px GNOME icon grid: the radio body spans the 103x103
       square base shape; antenna and waves are small protruding elements. -->
  <defs>
    <linearGradient id="bg" x1="0" y1="0" x2="1" y2="1">
      <stop offset="0%" stop-color="#f46b45"/>
      <stop offset="100%" stop-color="#7b2ff7"/>
    </linearGradient>
    <linearGradient id="bodyLight" x1="0" y1="0" x2="0" y2="1">
      <stop offset="0%" stop-color="#ffffff" stop-opacity="0.30"/>
      <stop offset="14%" stop-color="#ffffff" stop-opacity="0"/>
      <stop offset="82%" stop-color="#000000" stop-opacity="0"/>
      <stop offset="100%" stop-color="#000000" stop-opacity="0.22"/>
    </linearGradient>
  </defs>

  <!-- Antenna -->
  <line x1="72" y1="48" x2="99" y2="19" stroke="#452d62" stroke-width="5" stroke-linecap="round"/>
  <circle cx="99" cy="19" r="4.5" fill="#452d62"/>

  <!-- Waves from antenna tip -->
  <g fill="none" stroke-linecap="round" stroke-width="3.5">
    <path d="M 101.6 10.9 A 8.5 8.5 0 0 1 107.1 16.4" stroke="#f46b45"/>
    <path d="M 103.3 5.7 A 14 14 0 0 1 112.3 14.7" stroke="#f9a175"/>
  </g>

  <!-- Radio body -->
  <rect x="12.5" y="42" width="103" height="73.5" rx="15" fill="url(#bg)"/>
  <rect x="12.5" y="42" width="103" height="73.5" rx="15" fill="url(#bodyLight)"/>

  <!-- Speaker -->
  <circle cx="44" cy="78.5" r="23.5" fill="#fff6ee"/>
  <circle cx="44" cy="78.5" r="16.5" fill="url(#bg)"/>
  <circle cx="44" cy="78.5" r="10" fill="#fff6ee"/>
  <circle cx="44" cy="78.5" r="4.5" fill="url(#bg)"/>

  <!-- Tuning dial -->
  <rect x="73" y="56.5" width="33" height="9" rx="4.5" fill="#fff6ee"/>
  <rect x="86" y="54.5" width="3" height="13" rx="1.5" fill="#452d62"/>

  <!-- Knobs -->
  <circle cx="81" cy="92" r="7.5" fill="#fff6ee"/>
  <circle cx="81" cy="92" r="3.5" fill="url(#bg)"/>
  <circle cx="99" cy="92" r="7.5" fill="#fff6ee"/>
  <circle cx="99" cy="92" r="3.5" fill="url(#bg)"/>
</svg>
